<mxfile host="app.diagrams.net" modified="2024-06-11T23:42:32.120Z" agent="Mozilla/5.0 (Windows NT 10.0; Win64; x64) AppleWebKit/537.36 (KHTML, like Gecko) Chrome/125.0.0.0 Safari/537.36 Edg/125.0.0.0" etag="SY_h-YAQJp3SZMUrPg6C" version="24.5.2" type="github">
  <diagram name="Page-1" id="AuKhNLqbHMrbUrh-MwZr">
    <mxGraphModel dx="3448" dy="1958" grid="1" gridSize="10" guides="1" tooltips="1" connect="1" arrows="1" fold="1" page="1" pageScale="1" pageWidth="850" pageHeight="1100" math="0" shadow="0">
      <root>
        <mxCell id="0" />
        <mxCell id="1" parent="0" />
      </root>
    </mxGraphModel>
  </diagram>
</mxfile>
